<?xml version="1.0" encoding="UTF-8"?>
<svg width="339px" height="366px" viewBox="0 0 339 366" version="1.1" xmlns="http://www.w3.org/2000/svg" xmlns:xlink="http://www.w3.org/1999/xlink">
    <!-- Generator: Sketch 64 (93537) - https://sketch.com -->
    <title>noun_pattern_141518</title>
    <desc>Created with Sketch.</desc>
    <g id="New-Simple-Style" stroke="none" stroke-width="1" fill="none" fill-rule="evenodd">
        <g id="Construction-Copy" transform="translate(-966.000000, -145.000000)" fill="#6EABFE" fill-rule="nonzero">
            <g id="noun_pattern_141518" transform="translate(966.000000, 145.000000)">
                <g id="Group">
                    <g transform="translate(0.000000, 27.053899)">
                        <path d="M165.883486,165.705132 L81.2490545,165.705132 L81.2490545,257.012041 L172.654241,257.012041 L172.654241,172.468607 L257.288673,172.468607 L257.288673,81.1616972 L165.883486,81.1616972 L165.883486,165.705132 Z M165.883486,250.248566 L88.0198091,250.248566 L88.0198091,172.468607 L165.883486,172.468607 L165.883486,250.248566 Z M172.654241,87.925172 L250.517918,87.925172 L250.517918,165.705132 L172.654241,165.705132 C172.654241,165.705132 172.654241,87.925172 172.654241,87.925172 Z" id="Shape"></path>
                        <path d="M151.664902,187.010077 L102.576931,187.010077 L102.576931,236.045269 L151.664902,236.045269 L151.664902,187.010077 Z M144.894147,229.281795 L109.347686,229.281795 L109.347686,193.773552 L144.894147,193.773552 L144.894147,229.281795 Z" id="Shape"></path>
                        <path d="M187.211363,151.501835 L236.299334,151.501835 L236.299334,102.466643 L187.211363,102.466643 C187.211363,102.466643 187.211363,151.501835 187.211363,151.501835 Z M193.982118,109.230117 L229.528579,109.230117 L229.528579,144.73836 L193.982118,144.73836 C193.982118,144.73836 193.982118,109.230117 193.982118,109.230117 Z" id="Shape"></path>
                        <path d="M278.61655,250.248566 L255.595984,250.248566 L214.971457,210.005891 L214.971457,187.010077 L186.872825,187.010077 L186.872825,215.078498 L209.893391,215.078498 L250.517918,254.982999 L250.517918,277.978813 L271.845795,277.978813 L271.845795,320.25053 L320.933765,320.25053 L320.933765,271.553512 L278.61655,271.553512 L278.61655,250.248566 Z M208.200702,207.976849 L193.64358,207.976849 L193.64358,193.435378 L208.200702,193.435378 L208.200702,207.976849 Z M257.288673,271.553512 L257.288673,257.012041 L271.845795,257.012041 L271.845795,271.553512 L257.288673,271.553512 Z M314.163011,278.316987 L314.163011,313.825229 L278.61655,313.825229 L278.61655,278.316987 L314.163011,278.316987 Z" id="Shape"></path>
                        <path d="M60.2597155,87.925172 L83.2802809,87.925172 L123.56627,128.167847 L123.56627,151.163661 L151.664902,151.163661 L151.664902,123.095241 L128.644336,123.095241 L88.0198091,83.1907396 L88.0198091,60.1949254 L66.6919323,60.1949254 L66.6919323,17.9232081 L17.9424995,17.9232081 L17.9424995,66.9584002 L60.2597155,66.9584002 L60.2597155,87.925172 L60.2597155,87.925172 Z M130.337025,130.196889 L144.894147,130.196889 L144.894147,144.73836 L130.337025,144.73836 L130.337025,130.196889 Z M81.2490545,66.9584002 L81.2490545,81.1616972 L66.6919323,81.1616972 L66.6919323,66.6202264 L81.2490545,66.9584002 L81.2490545,66.9584002 Z M24.7132541,60.1949254 L24.7132541,24.6866829 L60.2597155,24.6866829 L60.2597155,60.1949254 L24.7132541,60.1949254 Z" id="Shape"></path>
                        <path d="M299.605889,81.1616972 L271.507257,81.1616972 L271.507257,109.230117 L299.605889,109.230117 L299.605889,81.1616972 Z M292.835134,102.466643 L278.278012,102.466643 L278.278012,87.925172 L292.835134,87.925172 L292.835134,102.466643 Z" id="Shape"></path>
                        <path d="M257.288673,38.8899799 L229.190041,38.8899799 L229.190041,66.9584002 L257.288673,66.9584002 L257.288673,38.8899799 Z M250.517918,60.1949254 L235.960796,60.1949254 L235.960796,45.6534547 L250.517918,45.6534547 L250.517918,60.1949254 Z" id="Shape"></path>
                        <path d="M38.9318386,257.012041 L67.03047,257.012041 L67.03047,228.943621 L38.9318386,228.943621 L38.9318386,257.012041 Z M45.7025932,236.045269 L60.2597155,236.045269 L60.2597155,250.248566 L45.7025932,250.248566 L45.7025932,236.045269 Z" id="Shape"></path>
                        <path d="M81.2490545,299.283758 L109.347686,299.283758 L109.347686,271.215338 L81.2490545,271.215338 C81.2490545,271.215338 81.2490545,299.283758 81.2490545,299.283758 Z M88.0198091,278.316987 L102.576931,278.316987 L102.576931,292.858457 L88.0198091,292.858457 L88.0198091,278.316987 Z" id="Shape"></path>
                        <path d="M151.664902,45.6534547 L211.924617,45.6534547 L211.924617,38.8899799 L151.664902,38.8899799 L151.664902,17.9232081 L102.576931,17.9232081 L102.576931,66.9584002 L151.664902,66.9584002 L151.664902,45.6534547 Z M144.894147,60.1949254 L109.347686,60.1949254 L109.347686,24.6866829 L144.894147,24.6866829 L144.894147,60.1949254 Z" id="Shape"></path>
                        <path d="M187.211363,292.520284 L126.951648,292.520284 L126.951648,299.283758 L187.211363,299.283758 L187.211363,320.588704 L236.299334,320.588704 L236.299334,271.553512 L187.211363,271.553512 C187.211363,271.553512 187.211363,292.520284 187.211363,292.520284 Z M193.982118,278.316987 L229.528579,278.316987 L229.528579,313.825229 L193.982118,313.825229 C193.982118,313.825229 193.982118,278.316987 193.982118,278.316987 Z" id="Shape"></path>
                        <path d="M17.9424995,151.501835 L39.2703764,151.501835 L39.2703764,211.69676 L46.0411309,211.69676 L46.0411309,151.501835 L67.3690077,151.501835 L67.3690077,102.466643 L17.9424995,102.466643 L17.9424995,151.501835 Z M24.7132541,109.230117 L60.2597155,109.230117 L60.2597155,144.73836 L24.7132541,144.73836 L24.7132541,109.230117 Z" id="Shape"></path>
                        <path d="M299.605889,126.815152 L292.835134,126.815152 L292.835134,187.010077 L271.507257,187.010077 L271.507257,236.045269 L320.595228,236.045269 L320.595228,187.010077 L299.267351,187.010077 L299.605889,126.815152 C299.267351,126.815152 299.605889,126.815152 299.605889,126.815152 Z M314.163011,229.281795 L278.61655,229.281795 L278.61655,193.773552 L314.163011,193.773552 L314.163011,229.281795 Z" id="Shape"></path>
                        <polygon id="Path" points="289.111219 49.3733658 289.111219 0 282.340465 0 282.340465 49.3733658 282.340465 52.0787557 282.340465 56.1368406 338.537727 56.1368406 338.537727 49.3733658"></polygon>
                        <polygon id="Path" points="0 288.800373 49.4265082 288.800373 49.4265082 338.173738 56.1972627 338.173738 56.1972627 288.800373 56.1972627 285.418635 56.1972627 282.036898 0 282.036898"></polygon>
                    </g>
                    <g transform="translate(230.205655, 0.000000)" id="Path">
                        <path d="M0.677075455,1.69086869 C0.677075455,1.01452121 1.01561318,0.676347477 1.69268864,0.676347477 C2.36976409,0.676347477 2.70830182,1.01452121 2.70830182,1.69086869 C2.70830182,2.36721617 2.36976409,2.70538991 1.69268864,2.70538991 C1.01561318,2.70538991 0.677075455,2.36721617 0.677075455,1.69086869 Z"></path>
                    </g>
                </g>
            </g>
        </g>
    </g>
</svg>