<?xml version="1.0" encoding="UTF-8"?>
<svg width="27px" height="25px" viewBox="0 0 27 25" version="1.1" xmlns="http://www.w3.org/2000/svg" xmlns:xlink="http://www.w3.org/1999/xlink">
    <!-- Generator: Sketch 64 (93537) - https://sketch.com -->
    <title>award_Icon</title>
    <desc>Created with Sketch.</desc>
    <g id="New-Simple-Style" stroke="none" stroke-width="1" fill="none" fill-rule="evenodd">
        <g id="Super" transform="translate(-1215.000000, -1687.000000)" fill="#539CFE" fill-rule="nonzero">
            <g id="award_Icon" transform="translate(1215.000000, 1687.000000)">
                <path d="M20.6376835,9.5307 L20.6376835,4.0191 C21.4379335,2.96505 22.5467335,2.69325 23.3069335,2.80005 C23.6234335,2.84475 24.3813835,3.0309 24.5823835,3.79515 C25.0068835,5.41005 22.8630835,7.7826 20.6376835,9.5307 Z M18.5117335,9.61875 L18.5085835,9.6849 C18.4497835,12.5115 16.1018335,14.811 13.2747835,14.811 C10.4475835,14.811 8.09963352,12.5115 8.04083352,9.6849 L8.03918352,9.64425 C8.03873352,9.6369 8.03828352,9.62955 8.03768352,9.62235 L8.03768352,2.1261 L18.5117335,2.1261 L18.5117335,9.61875 Z M1.96718352,3.79515 C2.16803352,3.0309 2.92598352,2.84475 3.24248352,2.80005 C4.00268352,2.69265 5.11148352,2.9649 5.91173352,4.0191 L5.91173352,9.53085 C3.69083352,7.78755 1.54208352,5.41185 1.96718352,3.79515 Z M21.6068335,11.20065 C23.7516835,9.5556 27.2306335,6.3429 26.4327835,3.30855 C26.0960335,2.0274 25.0005835,1.10655 23.5740835,0.9054 C22.5527335,0.7608 21.5253835,0.9891 20.6300335,1.5132 C20.5539835,0.66615 19.8410335,-4.45865567e-13 18.9747835,-4.45865567e-13 L7.57478352,-4.45865567e-13 C6.70853352,-4.45865567e-13 5.99573352,0.666 5.91938352,1.51275 C5.02418352,0.98865 3.99698352,0.76035 2.97533352,0.9054 C1.54883352,1.10655 0.453383506,2.0274 0.116633506,3.30855 C-0.681066494,6.3429 2.79773352,9.5556 4.93493352,11.19495 C5.28188352,11.4663 5.47748352,11.7291 5.47178352,11.91585 C5.46428352,12.16125 5.14853352,12.4596 5.01323352,12.5529 C4.57208352,12.84375 4.45013352,13.43715 4.74098352,13.87815 C4.92488352,14.1573 5.22983352,14.30865 5.54063352,14.30865 C5.72138352,14.30865 5.90408352,14.2575 6.06623352,14.15055 C6.14318352,14.09985 6.57473352,13.80045 6.92378352,13.2978 C7.25003352,13.85265 7.64963352,14.3688 8.12063352,14.83095 C9.27458352,15.9633 10.7390335,16.6695 12.3180835,16.8738 L12.3180835,22.0983 L8.82473352,22.0983 C8.29643352,22.0983 7.86803352,22.5267 7.86803352,23.055 C7.86803352,23.58345 8.29643352,24.0117 8.82473352,24.0117 L17.7248335,24.0117 C18.2531335,24.0117 18.6813835,23.58345 18.6813835,23.055 C18.6813835,22.5267 18.2531335,22.0983 17.7248335,22.0983 L14.2314835,22.0983 L14.2314835,16.8738 C15.8103835,16.6695 17.2749835,15.9633 18.4287835,14.83095 C18.8999335,14.3688 19.2995335,13.8525 19.6256335,13.29765 C19.9748335,13.80045 20.4063835,14.09985 20.4831835,14.15055 C20.6453335,14.2575 20.8281835,14.30865 21.0089335,14.30865 C21.3197335,14.30865 21.6246835,14.1573 21.8085835,13.87815 C22.0992835,13.43715 21.9774835,12.84375 21.5363335,12.5529 C21.4382335,12.4884 21.0882835,12.1782 21.0777835,11.91885 C21.0701335,11.73165 21.2657335,11.4678 21.6068335,11.20065 Z" id="Shape"></path>
            </g>
        </g>
    </g>
</svg>