<?xml version="1.0" encoding="UTF-8"?>
<svg width="9px" height="9px" viewBox="0 0 9 9" version="1.1" xmlns="http://www.w3.org/2000/svg" xmlns:xlink="http://www.w3.org/1999/xlink">
    <!-- Generator: Sketch 64 (93537) - https://sketch.com -->
    <title>link_icon</title>
    <desc>Created with Sketch.</desc>
    <g id="New-Simple-Style" stroke="none" stroke-width="1" fill="none" fill-rule="evenodd">
        <g id="Valuations" transform="translate(-1086.000000, -2888.000000)" fill="#539CFE">
            <g id="link_icon" transform="translate(1086.000000, 2888.000000)">
                <g id="noun_open-link_1395731" transform="translate(0.146447, 0.000000)" fill-rule="nonzero">
                    <path d="M0,0.813759214 C0,0.379530418 0.334740374,0.0275184275 0.747663551,0.0275184275 L8,0 C8,0 8,1.57248157 8,1.57248157 L0.743925234,1.6 C0.334740374,1.6 0,1.24798801 0,0.813759214 Z" id="Path"></path>
                    <path d="M7.81760391,8 C7.38549848,8 7.03520782,7.67079761 7.03520782,7.26470588 L7,0.735294118 C7,0.32920239 7.35029066,0 7.78239609,0 L7.78239609,0 C8.21450152,0 8.56479218,0.32920239 8.56479218,0.735294118 L8.6,7.26470588 C8.6,7.67079761 8.24970934,8 7.81760391,8 Z" id="Path"></path>
                </g>
                <path d="M-0.0403887212,3.97728481 L8.33641577,3.99304163 C8.778486,3.99387316 9.13641436,4.35247542 9.13641436,4.79454643 C9.13641436,5.23554393 8.77891525,5.59304304 8.33791775,5.59304304 C8.33741709,5.59304304 8.33691643,5.59304257 8.33641577,5.59304163 L-0.0403887212,5.57728481 C-0.482458947,5.57645327 -0.840387306,5.21785101 -0.840387306,4.77578 C-0.840387306,4.3347825 -0.482888196,3.97728339 -0.0418906957,3.97728339 C-0.0413900372,3.97728339 -0.0408893788,3.97728386 -0.0403887212,3.97728481 Z" id="Rectangle" transform="translate(4.148014, 4.785163) rotate(-45.000000) translate(-4.148014, -4.785163) "></path>
            </g>
        </g>
    </g>
</svg>