<svg width="18" height="16" viewBox="0 0 18 16" fill="none" xmlns="http://www.w3.org/2000/svg">
<path d="M16.7945 7.41055L10.8356 0.753305C10.5741 0.461138 10.1631 0.461138 9.9203 0.753305C9.65878 1.04547 9.65878 1.50459 9.9203 1.77589L14.7771 7.20186H1.6538C1.29888 7.20186 1 7.53577 1 7.93228C1 8.32879 1.29888 8.6627 1.6538 8.6627H14.7771L9.9203 14.0887C9.65878 14.3808 9.65878 14.84 9.9203 15.1113C10.0511 15.2573 10.2192 15.3199 10.3873 15.3199C10.5554 15.3199 10.7235 15.2573 10.8543 15.1113L16.8132 8.45401C16.944 8.30792 17 8.14097 17 7.93228C17 7.72359 16.9066 7.55664 16.7945 7.41055Z" fill="#0075FF" stroke="#0075FF"/>
</svg>
