<svg width="18" height="16" viewBox="0 0 18 16" fill="none" xmlns="http://www.w3.org/2000/svg">
<path d="M16.7945 7.51094L10.8356 1.20748C10.5741 0.93084 10.1631 0.93084 9.9203 1.20748C9.65878 1.48412 9.65878 1.91884 9.9203 2.17572L14.7771 7.31334H1.6538C1.29888 7.31334 1 7.6295 1 8.00494C1 8.38038 1.29888 8.69654 1.6538 8.69654H14.7771L9.9203 13.8342C9.65878 14.1108 9.65878 14.5455 9.9203 14.8024C10.0511 14.9407 10.2192 15 10.3873 15C10.5554 15 10.7235 14.9407 10.8543 14.8024L16.8132 8.49894C16.944 8.36062 17 8.20254 17 8.00494C17 7.80734 16.9066 7.64926 16.7945 7.51094Z" fill="#7749F9" stroke="#7749F9"/>
</svg>
